<svg width="40" height="20" viewBox="0 0 40 20" fill="none" xmlns="http://www.w3.org/2000/svg">
<path d="M19 20H1.5C0.671562 20 0 19.3284 0 18.5V1.5C0 0.671562 0.671562 0 1.5 0H19V20ZM38.5 20H21V0H38.5C39.3284 0 40 0.671562 40 1.5V18.5C40 19.3284 39.3284 20 38.5 20Z" fill="#E6EDF1"/>
<path d="M11.4026 13.392C11.7884 13.392 12.1398 13.614 12.3056 13.9623L12.8907 15.192C13.0565 15.5404 13.4079 15.7623 13.7937 15.7623H14.9394C15.0502 15.7623 15.1401 15.6725 15.1401 15.5616C15.1401 15.5323 15.1336 15.5034 15.1212 15.4768L10.0633 4.63828C9.94926 4.39396 9.70405 4.23779 9.43443 4.23779C9.16542 4.23779 8.92064 4.39327 8.8063 4.63678L3.71628 15.4766C3.70376 15.5033 3.69727 15.5324 3.69727 15.5619C3.69727 15.6726 3.78702 15.7623 3.89774 15.7623H5.05604C5.44389 15.7623 5.79675 15.5381 5.96143 15.1869L6.53332 13.9674C6.698 13.6163 7.05086 13.392 7.43871 13.392H11.4026ZM8.51572 9.30562C8.86644 8.50724 9.99971 8.50894 10.348 9.30837L10.8196 10.3906C11.1074 11.0511 10.6233 11.79 9.90282 11.79H8.95587C8.23407 11.79 7.75001 11.0487 8.04031 10.3879L8.51572 9.30562Z" fill="#004364"/>
<path d="M35.2234 6.00648L36.5465 6.00648V4.50708L32.3402 4.50708V6.00648L33.724 6.00648V8.29273H29.7642C29.6827 7.96488 29.7087 7.63337 29.9011 7.35942L31.6589 4.85677C31.685 4.81973 31.6989 4.77556 31.6989 4.73029C31.6989 4.60875 31.6004 4.51023 31.4789 4.51023H25.3272C24.9095 4.51023 24.5709 4.84881 24.5709 5.26647C24.5709 5.68413 24.9095 6.02271 25.3272 6.02271H27.231C28.0315 6.02271 28.5075 6.91637 28.0609 7.58066L26.6007 9.75255C26.5782 9.78603 26.5661 9.82545 26.5661 9.86579C26.5661 9.99781 26.6903 10.0946 26.8202 10.0713C28.3128 9.80448 30.0255 10.4048 30.0255 12.1853C30.0255 13.5207 29.1567 14.3253 27.8534 14.3253C26.9752 14.3253 26.3005 13.9832 25.9763 13.3201C25.7861 12.9312 25.4477 12.5875 25.0148 12.5875C24.5299 12.5875 24.1344 13.0021 24.2687 13.4681C24.7246 15.0498 26.1296 15.9504 27.8855 15.9504C30.3634 15.9504 31.7955 14.2609 31.7955 12.1692C31.7955 11.3523 31.5335 10.5549 31.0444 9.94668H33.724V15.7573H35.2234L35.2234 6.00648Z" fill="#004364"/>
</svg>
